<?xml version="1.0" standalone="no"?>
<!DOCTYPE svg PUBLIC "-//W3C//DTD SVG 20010904//EN"
 "http://www.w3.org/TR/2001/REC-SVG-20010904/DTD/svg10.dtd">
<svg version="1.0" xmlns="http://www.w3.org/2000/svg"
 width="300.000000pt" height="667.000000pt" viewBox="0 0 300.000000 667.000000"
 preserveAspectRatio="xMidYMid meet">
<metadata>
Created by potrace 1.10, written by Peter Selinger 2001-2011
</metadata>
<g transform="translate(0.000000,667.000000) scale(0.100000,-0.100000)"
fill="#000000" stroke="none">
<path d="M1255 5529 c-139 -14 -245 -54 -410 -154 -111 -67 -270 -195 -280
-225 -3 -9 -16 -23 -30 -30 -41 -22 -166 -220 -186 -295 -4 -16 -17 -62 -28
-102 -11 -39 -28 -113 -37 -165 -9 -51 -20 -115 -25 -143 -31 -171 -27 -348
11 -525 27 -121 39 -81 20 65 -6 51 -5 90 6 144 7 41 12 76 10 78 -2 2 -11 -3
-19 -12 -22 -21 -22 -20 -22 25 0 22 3 40 7 40 5 0 8 -4 8 -10 0 -5 5 -10 10
-10 17 0 11 32 -7 46 -17 12 -17 13 0 19 9 4 17 13 17 21 0 8 5 23 12 34 7 10
9 23 5 27 -5 4 -12 1 -17 -7 -5 -8 -12 -11 -16 -8 -3 4 1 14 10 23 18 18 22
55 6 55 -5 0 -10 5 -10 11 0 7 10 5 25 -5 14 -9 25 -12 25 -7 0 5 -10 15 -23
24 -12 8 -19 18 -15 22 4 4 15 2 24 -6 16 -13 16 -12 6 7 -11 21 -2 120 13
143 3 5 1 13 -5 16 -8 5 -7 11 1 21 7 8 14 27 16 42 9 75 17 107 29 120 8 7
14 22 14 33 0 11 7 22 15 25 8 4 15 14 15 24 0 11 4 22 10 25 5 3 13 20 18 38
5 18 15 32 22 32 8 0 23 18 35 39 27 52 101 130 115 121 7 -4 9 2 4 19 -6 24
-4 26 26 26 26 0 30 3 25 19 -7 23 28 39 49 22 10 -8 12 -5 12 11 -1 15 8 27
27 36 15 7 27 18 27 23 0 7 12 8 30 4 25 -5 29 -4 24 9 -4 10 -1 16 10 16 8 0
25 13 37 30 12 16 36 34 52 40 38 13 84 13 89 0 2 -7 11 -5 23 4 19 14 19 15
-8 21 -29 8 -37 25 -12 25 8 0 15 4 15 10 0 11 88 2 105 -10 16 -12 65 -18 65
-8 0 5 -13 11 -30 14 -16 4 -35 13 -42 22 -11 13 -9 15 24 9 21 -3 40 -1 43 4
7 10 45 13 45 3 0 -4 -8 -13 -17 -20 -13 -10 -14 -13 -4 -14 7 0 24 11 37 25
16 18 34 25 59 25 39 0 44 -13 19 -48 -14 -21 -14 -22 5 -22 12 0 21 4 21 10
0 17 39 31 58 21 11 -6 24 -6 33 0 11 7 9 9 -8 9 -12 0 -25 5 -29 11 -3 6 -15
9 -25 6 -10 -3 -21 -1 -24 3 -9 14 32 22 54 10 12 -5 30 -14 41 -20 11 -5 26
-10 35 -10 8 0 31 -9 51 -20 20 -12 39 -19 41 -16 3 3 -11 13 -31 23 -35 16
-42 33 -19 40 6 2 18 -3 27 -12 8 -9 21 -15 28 -14 40 5 58 -2 58 -22 0 -17 3
-19 14 -10 8 7 12 21 8 34 -5 22 -5 22 16 3 14 -12 22 -14 22 -7 0 7 5 9 11 6
7 -5 5 -13 -5 -24 -20 -22 -20 -32 -1 -25 8 4 17 -1 21 -10 3 -9 13 -16 21
-16 13 0 13 3 0 24 -15 23 -15 24 6 30 12 3 25 0 29 -7 4 -7 8 -8 8 -3 0 6 16
-5 35 -24 29 -28 37 -31 50 -20 13 11 20 9 47 -16 18 -16 38 -35 46 -42 8 -7
22 -10 32 -7 9 3 23 -1 30 -10 9 -11 9 -15 1 -15 -7 0 -9 -4 -6 -10 3 -5 19
-10 36 -10 16 0 29 -4 29 -10 0 -5 7 -10 16 -10 11 0 13 -6 9 -19 -5 -17 -1
-18 32 -14 l38 4 -37 -27 c-21 -15 -35 -31 -32 -35 8 -13 24 -11 24 4 0 7 14
14 31 15 28 2 30 1 18 -14 -11 -14 -11 -17 4 -25 9 -6 17 -14 17 -19 0 -10 44
-60 54 -60 3 0 6 7 6 15 0 8 7 15 15 15 8 0 15 5 15 10 0 6 -5 10 -12 10 -6 0
-8 3 -5 6 4 4 14 1 22 -6 15 -12 15 -14 -1 -23 -15 -9 -13 -11 12 -23 17 -7
22 -13 13 -13 -9 -1 -22 -8 -29 -16 -10 -12 -7 -15 14 -21 15 -3 31 -14 37
-23 8 -13 9 -10 4 12 -3 15 -1 27 4 27 11 0 21 -24 21 -51 0 -10 11 -25 23
-34 43 -28 58 -95 21 -95 -8 0 -14 -4 -14 -10 0 -5 -5 -10 -11 -10 -5 0 -8 4
-5 9 3 5 -1 14 -9 21 -28 23 -17 -15 13 -47 25 -27 62 -49 62 -37 0 19 -24 45
-37 40 -9 -4 -13 -1 -10 6 2 7 14 12 26 10 18 -2 21 2 16 18 -8 25 3 26 21 3
18 -24 17 -34 -1 -27 -19 8 -19 -1 1 -31 9 -14 22 -21 30 -18 9 3 14 -2 14
-15 0 -10 9 -48 21 -83 11 -35 18 -75 16 -88 -3 -14 1 -49 9 -78 18 -68 18
-87 1 -80 -8 3 -14 -1 -14 -9 0 -8 6 -13 14 -10 7 3 13 0 14 -7 7 -94 5 -207
-3 -207 -6 0 -7 -13 -3 -31 5 -20 3 -29 -3 -25 -5 3 -16 -1 -23 -10 -11 -13
-10 -17 3 -25 14 -8 15 -34 13 -206 -4 -212 -6 -241 -18 -260 -5 -7 -4 -13 2
-13 5 0 15 18 23 40 7 22 16 40 21 40 4 0 16 0 27 0 36 0 34 -28 -4 -70 -46
-51 -50 -84 -4 -43 17 15 18 15 18 -5 0 -11 5 -24 10 -27 6 -3 10 -25 10 -48
0 -53 -37 -251 -55 -294 -8 -19 -10 -35 -4 -38 15 -10 11 -41 -10 -77 -10 -18
-22 -62 -25 -98 -4 -45 -12 -70 -26 -84 -20 -20 -20 -20 -20 -1 0 11 7 54 15
95 9 41 20 107 24 145 5 39 16 112 26 163 11 62 13 97 7 105 -6 7 -16 50 -23
97 -11 74 -13 81 -21 55 -10 -38 -6 -108 7 -117 6 -4 10 -11 11 -15 0 -4 4
-20 8 -35 5 -16 2 -47 -7 -80 -9 -29 -19 -84 -23 -123 -9 -92 -10 -103 -18
-150 -17 -95 -39 -171 -52 -181 -8 -6 -21 -51 -30 -100 -8 -49 -19 -98 -24
-109 -5 -11 -14 -38 -21 -60 -17 -51 -98 -209 -110 -213 -5 -2 -9 -9 -9 -16 0
-14 -60 -109 -72 -114 -5 -2 -8 -7 -8 -12 0 -10 -60 -99 -85 -127 -34 -37 -42
-49 -49 -70 -4 -12 -13 -24 -21 -27 -8 -3 -15 -10 -15 -16 0 -12 -43 -74 -70
-100 -118 -119 -241 -207 -315 -225 -115 -28 -279 -43 -344 -31 -31 5 -58 12
-61 16 -3 3 -15 7 -28 7 -12 1 -37 9 -54 17 -17 9 -35 16 -40 16 -10 0 -110
70 -120 85 -4 5 -8 6 -8 1 0 -14 -51 37 -159 159 -107 122 -151 178 -151 194
0 6 -4 11 -8 11 -8 0 -85 104 -112 152 -8 15 -34 60 -56 100 -35 61 -46 88
-59 138 0 3 -8 19 -18 36 -9 17 -13 34 -10 38 4 3 1 6 -5 6 -7 0 -11 3 -10 8
1 4 -6 41 -16 82 -10 41 -20 85 -21 96 -2 12 -9 32 -15 45 -12 21 -29 94 -67
289 -8 41 -15 85 -16 97 -2 24 -17 20 -17 -5 -1 -29 -63 165 -85 263 -12 53
11 13 25 -45 7 -30 19 -68 27 -85 13 -28 14 -27 6 25 -13 93 -10 195 5 192 8
-1 3 12 -12 30 -34 46 -42 81 -21 102 25 25 42 19 51 -16 l8 -33 4 39 c4 45
-8 57 -53 54 -73 -7 -88 -140 -39 -353 15 -66 33 -125 41 -131 7 -6 13 -20 13
-30 0 -10 13 -68 29 -129 16 -60 34 -137 41 -170 28 -138 110 -396 163 -516
24 -54 187 -302 268 -407 58 -75 195 -220 254 -268 118 -96 246 -144 405 -151
168 -9 306 29 424 114 147 107 225 195 385 436 175 263 256 442 305 669 4 18
21 37 46 53 41 26 42 29 55 144 3 30 12 66 19 80 22 42 30 75 17 67 -16 -10
-14 6 10 60 12 27 24 73 26 104 2 30 11 91 19 136 26 149 17 212 -35 234 -19
8 -34 22 -38 38 -6 27 5 387 14 437 12 65 11 240 -2 272 -8 17 -10 33 -5 35
10 4 -24 177 -47 238 -20 54 -49 108 -72 135 -9 11 -30 46 -46 79 -17 32 -40
66 -52 76 -13 10 -23 24 -23 32 0 8 -28 37 -62 65 -35 29 -81 69 -104 91 -23
22 -61 52 -85 67 -24 15 -53 36 -64 46 -37 33 -219 118 -310 144 -79 23 -112
27 -265 30 -96 2 -215 -1 -265 -6z"/>
<path d="M1853 5306 c-25 -12 -31 -26 -10 -26 17 1 50 27 40 32 -4 2 -18 0
-30 -6z"/>
<path d="M1280 5279 c0 -5 6 -9 14 -9 9 0 16 -12 18 -31 l3 -32 11 30 c10 28
9 30 -17 40 -16 7 -29 7 -29 2z"/>
<path d="M1703 5273 c-3 -10 -8 -21 -10 -25 -2 -4 1 -9 6 -12 5 -3 14 8 20 24
6 19 6 30 0 30 -5 0 -12 -8 -16 -17z"/>
<path d="M1948 5274 c-3 -3 -4 -14 -1 -25 4 -14 11 -18 24 -14 11 4 19 2 19
-3 0 -6 7 -13 16 -16 17 -7 12 5 -20 41 -20 24 -28 27 -38 17z"/>
<path d="M1399 5233 c30 -22 51 -25 51 -7 0 8 -6 14 -12 14 -7 0 -24 3 -38 6
l-25 5 24 -18z"/>
<path d="M1817 5183 c-15 -8 -25 -18 -22 -24 11 -16 32 -10 49 16 18 28 14 29
-27 8z"/>
<path d="M2141 5158 c-1 -18 45 -55 55 -45 10 10 -6 27 -26 27 -10 0 -21 8
-23 18 -4 16 -5 16 -6 0z"/>
<path d="M1840 5132 c0 -4 15 -13 33 -20 17 -7 40 -18 50 -23 13 -7 17 -5 17
6 0 8 -8 15 -18 15 -10 0 -27 7 -38 15 -21 16 -44 20 -44 7z"/>
<path d="M1730 5120 c0 -15 69 -87 70 -72 0 6 -5 12 -11 12 -5 0 -8 3 -6 8 2
4 -9 20 -25 35 -15 15 -28 23 -28 17z"/>
<path d="M1970 5080 c-14 -27 -5 -39 15 -19 9 9 11 19 6 28 -7 11 -11 9 -21
-9z"/>
<path d="M2206 4994 c-4 -10 -2 -22 4 -28 7 -7 10 -6 10 2 0 6 7 9 15 6 8 -4
12 -11 8 -17 -4 -6 -1 -7 6 -2 10 6 10 10 -1 19 -7 6 -18 17 -24 24 -9 10 -13
9 -18 -4z"/>
<path d="M1523 4938 c-26 -34 -24 -38 12 -38 25 0 35 4 32 13 -2 6 -11 11 -20
9 -11 -2 -15 2 -11 13 7 18 0 20 -13 3z"/>
<path d="M1295 4926 c-11 -8 -24 -11 -30 -6 -5 4 -19 4 -30 0 -20 -8 -20 -8 0
-16 11 -4 23 -12 28 -18 5 -8 10 -7 16 3 6 9 19 12 40 8 18 -4 31 -2 31 3 0 6
-6 10 -14 10 -8 0 -16 7 -18 16 -3 13 -5 13 -23 0z"/>
<path d="M1423 4929 c9 -6 15 -14 12 -20 -4 -5 8 -9 24 -9 24 0 31 4 31 20 0
17 -7 20 -42 20 -35 -1 -39 -3 -25 -11z"/>
<path d="M1597 4933 c-28 -7 -17 -45 15 -54 22 -6 30 -2 43 18 22 33 9 45 -16
14 -18 -22 -24 -17 -20 17 1 6 1 11 -1 11 -2 -1 -11 -3 -21 -6z"/>
<path d="M1696 4924 c-4 -9 -1 -23 5 -30 14 -17 43 -3 60 27 10 19 9 20 -13
14 -12 -4 -24 -12 -26 -16 -2 -5 -8 -9 -13 -9 -4 0 -6 7 -3 15 4 8 4 15 1 15
-3 0 -8 -7 -11 -16z"/>
<path d="M1787 4923 c-12 -11 -8 -23 7 -23 7 0 16 -9 19 -20 3 -12 14 -20 29
-21 12 0 33 -2 45 -3 33 -4 51 10 35 26 -10 10 -16 10 -33 0 -26 -16 -37 -8
-19 13 12 14 10 15 -14 9 -18 -4 -32 -1 -45 10 -10 9 -21 13 -24 9z"/>
<path d="M1964 4902 c-16 -11 -26 -60 -13 -68 6 -3 16 -1 22 5 6 6 17 11 24
11 11 0 11 -4 2 -22 -10 -19 -9 -20 7 -13 48 19 58 19 50 -1 -4 -12 3 -7 18
11 26 31 30 27 26 -30 -2 -25 0 -27 13 -16 24 19 61 10 65 -16 2 -13 8 -23 14
-23 17 0 1 56 -23 84 -12 14 -26 23 -31 20 -4 -3 -8 0 -8 5 0 6 -7 11 -15 11
-9 0 -28 6 -44 14 -19 10 -31 12 -42 4 -11 -8 -11 -9 4 -4 9 3 17 0 17 -6 0
-6 -11 -8 -31 -4 -17 3 -36 6 -41 6 -6 0 -8 9 -5 20 6 23 6 22 -9 12z"/>
<path d="M1007 4888 c2 -5 17 -8 32 -8 16 0 34 -7 41 -15 14 -16 30 -11 30 10
0 9 -17 14 -54 17 -30 1 -52 0 -49 -4z"/>
<path d="M857 4852 c1 -8 3 -16 3 -18 0 -2 12 -4 26 -4 14 0 23 4 19 10 -3 6
-15 10 -25 10 -10 0 -20 3 -23 8 -2 4 -2 1 0 -6z"/>
<path d="M920 4852 c0 -8 9 -10 28 -6 51 12 59 24 15 21 -27 -1 -43 -7 -43
-15z"/>
<path d="M2247 4770 c15 -22 34 -38 41 -35 7 3 17 -7 22 -21 7 -17 16 -24 25
-21 9 4 32 -16 65 -55 45 -54 50 -64 44 -94 -4 -24 -1 -42 10 -59 9 -14 15
-29 13 -33 -6 -11 27 -37 51 -39 l22 -3 -22 30 c-12 17 -25 30 -29 30 -3 0
-13 14 -20 32 -10 24 -10 33 -1 36 13 4 17 42 4 42 -4 0 -14 16 -21 35 -7 19
-17 35 -22 35 -5 0 -9 6 -9 13 0 7 -13 21 -30 30 -16 10 -36 25 -45 33 -10 11
-15 12 -15 3 0 -12 -15 -3 -15 9 -1 16 -17 32 -33 32 -10 0 -23 9 -30 20 -7
11 -17 20 -23 20 -6 0 2 -18 18 -40z"/>
<path d="M568 4721 c-14 -16 -31 -39 -38 -51 -7 -13 -24 -34 -38 -47 -17 -16
-22 -27 -16 -33 7 -7 22 7 43 41 18 27 43 59 54 70 17 16 32 49 23 49 -2 0
-14 -13 -28 -29z"/>
<path d="M2486 4722 c-3 -5 12 -27 34 -48 21 -21 37 -42 34 -46 -3 -4 0 -8 5
-8 18 0 12 20 -12 43 -13 12 -30 32 -39 45 -9 13 -19 19 -22 14z"/>
<path d="M2454 4395 c-4 -10 -2 -26 4 -36 7 -10 12 -27 12 -38 0 -10 7 -24 15
-31 18 -15 19 -3 5 35 -5 14 -12 37 -14 51 -7 35 -14 41 -22 19z"/>
<path d="M2543 4370 c1 -16 8 -32 15 -35 14 -5 17 21 2 30 -5 3 -7 12 -3 20 3
8 0 15 -6 15 -5 0 -9 -13 -8 -30z"/>
<path d="M2502 4238 c14 -43 15 -43 27 -20 9 16 7 24 -5 36 -25 25 -34 19 -22
-16z"/>
<path d="M2570 4255 c-2 -5 -3 -27 -4 -47 -1 -29 2 -35 11 -25 8 8 9 23 3 47
-4 19 -9 31 -10 25z"/>
<path d="M600 3929 c-19 -12 -37 -25 -40 -29 -3 -4 -26 -17 -51 -28 -34 -16
-48 -28 -51 -47 -7 -32 10 -33 22 0 5 14 22 30 37 36 16 6 43 18 61 27 34 16
140 24 148 10 7 -12 44 -10 44 2 0 6 11 8 25 4 31 -8 33 4 3 15 -14 5 -30 4
-40 -3 -24 -15 -37 3 -14 20 11 8 15 14 9 14 -7 0 -15 -5 -18 -10 -4 -6 -19
-9 -33 -8 -15 1 -33 -1 -40 -6 -7 -4 -12 -1 -12 8 0 21 -8 20 -50 -5z"/>
<path d="M834 3925 c16 -12 17 -17 5 -31 -12 -15 -11 -16 11 -9 14 4 27 11 30
16 5 7 115 -70 130 -91 3 -4 16 -11 29 -15 23 -7 23 -7 6 16 -38 51 -135 112
-195 122 -32 6 -33 5 -16 -8z"/>
<path d="M2181 3931 c-12 -8 18 -18 71 -24 13 -1 14 -5 6 -14 -6 -7 -17 -13
-25 -13 -8 0 -25 -12 -39 -27 -19 -21 -27 -24 -33 -14 -6 9 -11 10 -15 2 -4
-6 -1 -13 6 -16 16 -6 101 8 96 16 -6 11 25 40 38 35 7 -3 14 0 16 5 4 13 35
2 41 -15 4 -9 -2 -11 -20 -8 -18 3 -24 1 -19 -7 4 -6 14 -11 22 -11 8 0 14 -5
14 -11 0 -8 -12 -10 -34 -6 -19 3 -37 3 -40 0 -10 -10 47 -34 68 -29 11 3 32
-6 52 -21 18 -13 39 -23 46 -20 8 4 6 6 -4 6 -20 1 -24 17 -6 23 9 3 7 13 -7
35 -31 47 -86 88 -142 106 -58 19 -72 20 -92 8z m209 -111 c22 -22 27 -42 8
-34 -18 7 -51 54 -38 54 5 0 19 -9 30 -20z"/>
<path d="M2097 3909 c-9 -5 -43 -15 -75 -20 -52 -9 -62 -15 -105 -65 -29 -33
-42 -54 -33 -54 8 0 16 3 18 8 7 16 70 53 100 59 37 7 70 21 79 35 3 5 9 3 12
-5 6 -16 -43 -48 -95 -61 -18 -4 -25 -11 -22 -20 4 -11 -10 -18 -55 -27 -33
-6 -65 -17 -71 -24 -8 -10 4 -10 57 1 110 22 186 49 194 70 11 29 48 64 67 64
9 0 24 5 32 11 11 8 6 9 -22 7 -20 -2 -34 0 -31 5 3 5 -1 13 -8 18 -17 11 -20
11 -42 -2z"/>
<path d="M980 3897 c0 -10 91 -72 105 -72 8 0 21 -9 29 -20 10 -13 15 -15 16
-6 0 7 15 -3 34 -24 19 -20 40 -35 47 -33 8 3 3 13 -15 31 -14 14 -31 38 -36
51 -10 28 -66 57 -115 61 -16 1 -38 5 -47 10 -10 4 -18 5 -18 2z"/>
<path d="M725 3877 c-33 -6 -64 -16 -70 -22 -5 -7 -27 -18 -47 -24 -38 -12
-72 -41 -48 -41 6 0 24 6 38 13 15 8 42 21 61 31 29 14 36 15 50 2 9 -7 32
-17 51 -21 19 -4 45 -13 57 -21 12 -8 28 -14 35 -14 7 1 2 7 -11 14 -15 8 -20
16 -13 20 6 4 20 -1 30 -11 37 -36 52 -45 88 -50 25 -3 34 -1 30 6 -4 6 -14
11 -22 11 -18 0 -91 49 -119 80 -30 33 -45 37 -110 27z"/>
<path d="M1900 3881 c0 -5 -13 -14 -29 -21 -22 -9 -32 -22 -39 -53 -6 -23 -9
-44 -6 -46 3 -3 7 4 10 15 3 11 24 32 47 47 22 15 35 27 28 27 -8 0 -10 7 -6
20 3 11 4 20 1 20 -3 0 -6 -4 -6 -9z"/>
<path d="M850 3875 c0 -25 122 -96 138 -81 8 9 -10 26 -28 26 -10 0 -25 7 -33
15 -8 8 -18 11 -22 7 -5 -4 -6 0 -3 9 4 9 1 16 -5 16 -7 0 -20 4 -29 8 -10 4
-18 4 -18 0z"/>
<path d="M567 3843 c-27 -13 -46 -27 -44 -30 3 -2 13 0 24 5 10 5 38 19 63 30
26 12 37 21 25 21 -11 -1 -42 -12 -68 -26z"/>
<path d="M1735 3851 c-23 -5 -31 -13 -36 -38 -6 -33 -3 -43 13 -43 5 0 6 4 3
10 -8 12 13 52 24 46 5 -3 16 3 26 14 19 21 18 21 -30 11z"/>
<path d="M1800 3845 c0 -7 -6 -18 -13 -22 -7 -4 -18 -20 -24 -35 -10 -23 -10
-28 1 -28 18 0 41 29 54 68 9 26 8 32 -4 32 -7 0 -14 -7 -14 -15z"/>
<path d="M306 3713 c-9 -56 -7 -133 3 -133 5 0 9 38 10 85 2 91 -3 108 -13 48z"/>
<path d="M670 3663 c-63 -20 -88 -33 -116 -61 -30 -31 -32 -53 -1 -25 31 29
104 66 116 59 5 -4 12 -2 16 3 3 5 52 9 109 8 58 -2 102 1 99 6 -2 4 7 6 20 3
14 -2 51 -8 83 -12 46 -5 64 -13 81 -33 69 -81 82 -95 83 -85 0 6 -17 35 -38
65 -35 50 -42 55 -102 71 -83 21 -285 22 -350 1z"/>
<path d="M1877 3656 c-46 -10 -67 -21 -103 -57 -41 -39 -81 -106 -70 -116 2
-2 20 18 40 45 19 27 54 62 77 78 40 28 48 29 165 31 109 2 123 1 127 -15 4
-16 5 -16 6 1 2 31 66 15 165 -43 38 -22 71 -38 74 -35 9 9 -21 36 -81 71 -55
32 -71 36 -171 45 -137 11 -157 10 -229 -5z"/>
<path d="M744 3601 c-39 -9 -84 -27 -99 -39 -15 -12 -45 -25 -67 -28 -50 -8
-59 -24 -14 -24 25 0 44 -9 68 -31 40 -37 63 -47 147 -65 44 -10 68 -11 75 -4
7 7 3 10 -13 10 -55 0 -129 31 -155 65 l-26 33 33 21 c18 11 45 24 60 30 27
10 27 10 27 -33 0 -32 6 -50 26 -71 23 -25 30 -27 81 -23 64 6 93 30 93 79 0
16 5 29 10 29 30 0 130 -72 130 -92 0 -5 -17 -8 -37 -8 -21 0 -65 -7 -98 -15
-33 -8 -73 -15 -90 -16 -26 -1 -27 -2 -6 -6 13 -3 73 3 132 13 60 9 112 14
116 11 18 -18 -108 -161 -202 -229 -28 -20 -59 -46 -70 -58 l-20 -22 28 13
c15 7 27 16 27 21 0 5 11 13 24 18 42 16 155 122 207 195 l31 43 -39 62 c-44
73 -109 117 -183 124 -25 2 -63 7 -85 10 -24 3 -68 -2 -111 -13z m165 -50 c11
-21 5 -32 -13 -25 -7 3 -23 0 -37 -5 -22 -9 -20 -10 16 -10 30 -1 36 -4 27
-13 -17 -17 -86 2 -90 25 -7 34 6 47 47 47 29 0 43 -5 50 -19z m44 4 c8 -18
-11 -31 -25 -17 -11 11 -3 32 12 32 4 0 10 -7 13 -15z"/>
<path d="M1934 3586 c-93 -28 -123 -43 -166 -86 -50 -49 -62 -76 -30 -66 10 4
56 0 103 -8 132 -23 175 -28 167 -21 -10 11 -169 44 -210 45 -21 0 -38 3 -38
6 0 16 105 84 130 84 5 0 10 -10 10 -23 0 -36 27 -66 71 -77 78 -21 129 10
129 78 0 30 2 33 23 26 35 -11 97 -44 97 -52 -1 -16 -57 -46 -124 -68 -52 -16
-63 -23 -41 -23 42 -1 225 61 220 75 -2 7 10 14 26 18 41 8 36 22 -12 30 -22
4 -64 18 -92 33 -40 20 -73 27 -143 32 -50 3 -104 2 -120 -3z m146 -65 c0 -16
-7 -34 -15 -41 -17 -14 -20 -3 -6 19 6 9 6 22 1 32 -5 9 -7 19 -3 22 11 12 23
-4 23 -32z m-46 20 c11 -18 -13 -61 -34 -61 -11 0 -20 5 -20 10 0 6 9 10 20
10 11 0 20 5 20 11 0 11 -17 9 -67 -6 -19 -6 -23 -3 -23 12 0 11 3 23 7 26 10
10 91 8 97 -2z"/>
<path d="M2651 3568 c0 -18 4 -42 9 -53 6 -15 9 -8 9 27 1 26 -3 50 -9 53 -6
4 -10 -7 -9 -27z"/>
<path d="M2727 3510 c-17 -86 -18 -95 -2 -52 9 24 15 53 13 65 -3 17 -5 13
-11 -13z"/>
<path d="M649 3411 c6 -10 23 -27 38 -37 40 -27 204 -24 287 5 33 12 61 19 63
17 12 -12 -133 -66 -192 -72 -51 -5 -63 -9 -50 -17 32 -18 117 -2 195 36 139
69 145 89 18 61 -86 -20 -217 -25 -255 -11 -19 7 -22 5 -17 -7 5 -13 2 -15
-12 -9 -11 3 -26 14 -34 23 -8 9 -23 19 -33 23 -14 5 -16 3 -8 -12z"/>
<path d="M2190 3407 c-66 -24 -212 -28 -334 -9 -78 12 -108 10 -70 -5 10 -4
34 -17 53 -30 42 -29 60 -30 35 -2 l-19 21 35 -8 c19 -5 85 -9 145 -9 92 0
117 4 157 22 25 12 49 27 53 33 3 5 5 9 3 9 -2 -1 -28 -11 -58 -22z"/>
<path d="M1091 3023 c-33 -51 -61 -138 -61 -191 0 -37 6 -50 33 -77 36 -36 99
-58 149 -53 39 4 51 28 14 28 -14 0 -26 4 -26 10 0 18 88 6 112 -17 13 -11 45
-31 73 -43 48 -22 50 -22 100 -5 27 10 64 26 80 35 20 12 50 18 92 18 45 0 77
7 117 25 60 28 84 56 93 111 7 43 -12 50 -20 7 -3 -16 -21 -44 -39 -63 -29
-31 -42 -36 -106 -46 -41 -6 -81 -8 -89 -5 -8 3 -28 -4 -44 -16 -16 -12 -43
-24 -61 -28 -18 -3 -41 -10 -50 -15 -10 -5 -18 -5 -18 -1 0 4 -16 9 -36 10
-25 1 -47 11 -68 31 -30 29 -33 29 -116 26 -47 -2 -96 -5 -109 -5 -33 -1 -45
15 -47 68 -2 33 8 75 28 131 34 94 34 117 -1 65z"/>
<path d="M1816 3001 c-3 -4 3 -16 13 -25 10 -9 17 -27 15 -41 -1 -14 3 -25 9
-25 7 0 12 15 12 33 0 46 -33 85 -49 58z"/>
<path d="M1643 2920 c-6 -22 -7 -43 -2 -45 10 -7 15 3 23 48 9 50 -7 48 -21
-3z"/>
<path d="M1234 2895 c7 -40 27 -57 24 -21 -1 15 -8 32 -16 38 -10 9 -12 6 -8
-17z"/>
<path d="M1486 2493 c-8 -8 -13 -9 -42 -12 -22 -2 -7 -21 17 -21 10 0 19 5 19
10 0 6 9 10 20 10 11 0 20 5 20 10 0 12 -23 13 -34 3z"/>
<path d="M1370 2472 c0 -4 16 -14 35 -21 19 -7 35 -16 35 -20 0 -18 40 -18 70
1 40 24 34 31 -16 20 -31 -7 -45 -5 -69 10 -32 19 -55 23 -55 10z"/>
<path d="M1532 2419 c-29 -17 -52 -32 -50 -34 2 -1 14 -8 28 -15 22 -12 23
-11 13 2 -10 12 -5 18 31 35 53 26 108 18 192 -26 54 -28 55 -29 27 -35 -15
-3 -54 -8 -86 -11 -32 -3 -93 -15 -135 -26 -68 -17 -97 -19 -247 -13 -93 4
-177 11 -185 16 -11 7 -9 8 8 5 12 -3 22 -1 22 4 0 5 6 9 14 9 8 0 16 3 18 8
6 13 62 48 97 60 56 19 148 12 134 -11 -4 -6 0 -8 10 -4 9 3 19 2 22 -2 2 -5
-5 -11 -17 -14 -12 -4 -19 -9 -16 -12 7 -8 48 12 48 23 0 12 -69 52 -99 58
-28 6 -99 -24 -233 -99 l-57 -31 -48 17 c-26 9 -51 17 -55 17 -16 0 -7 -19 12
-25 11 -3 42 -22 71 -41 53 -37 75 -39 43 -3 -19 21 -19 21 16 15 19 -3 112
-8 205 -11 151 -5 180 -4 245 14 41 11 104 22 140 25 36 2 78 9 93 15 38 15
47 14 47 -5 0 -12 7 -10 33 10 17 13 44 29 60 35 27 11 37 31 15 31 -7 0 -28
-9 -47 -21 -26 -15 -40 -18 -55 -11 -12 5 -34 14 -51 20 -16 5 -57 22 -90 36
-78 33 -109 32 -173 -5z"/>
<path d="M937 2406 c-9 -13 -19 -36 -23 -50 -5 -21 -3 -25 10 -20 11 4 14 13
10 30 -5 18 -2 24 10 24 9 0 16 8 16 20 0 26 -4 25 -23 -4z"/>
<path d="M1605 2230 c-4 -6 -15 -8 -26 -5 -20 7 -24 -2 -11 -23 7 -10 15 -9
40 4 18 8 32 20 32 25 0 12 -27 11 -35 -1z"/>
<path d="M1829 2193 c-13 -21 -28 -41 -35 -45 -17 -11 -46 -58 -35 -58 5 0 30
26 54 58 54 71 61 82 48 82 -5 0 -20 -17 -32 -37z"/>
<path d="M1290 2205 c-7 -8 -10 -18 -7 -21 9 -10 48 7 44 19 -6 18 -23 19 -37
2z"/>
<path d="M1453 2143 c-15 -6 -17 -33 -3 -33 6 0 10 7 10 15 0 14 3 14 24 0 21
-14 24 -14 36 0 17 20 7 29 -18 16 -10 -5 -23 -6 -28 -2 -5 5 -15 6 -21 4z"/>
<path d="M1370 2116 c0 -7 6 -13 13 -13 6 0 17 -2 24 -4 6 -2 11 1 12 6 0 6
-11 13 -24 17 -17 4 -25 2 -25 -6z"/>
<path d="M1166 2082 c56 -50 116 -80 189 -93 33 -6 65 -10 70 -10 75 8 117 16
205 42 66 19 131 58 98 59 -9 0 -18 -3 -20 -7 -13 -31 -200 -69 -328 -67 -67
1 -177 48 -221 97 -9 9 -20 17 -25 17 -5 -1 10 -18 32 -38z"/>
</g>
</svg>
